<mxfile host="Electron" modified="2024-03-21T12:23:42.122Z" agent="Mozilla/5.0 (Macintosh; Intel Mac OS X 10_15_7) AppleWebKit/537.36 (KHTML, like Gecko) draw.io/23.1.5 Chrome/120.0.6099.109 Electron/28.1.0 Safari/537.36" etag="TdTqBYD58LASDMPS4Znr" version="23.1.5" type="device">
  <diagram name="第 1 页" id="1CL4v1-dPU4inqPMQ9zU">
    <mxGraphModel dx="1206" dy="1005" grid="0" gridSize="10" guides="1" tooltips="1" connect="1" arrows="1" fold="1" page="1" pageScale="1" pageWidth="583" pageHeight="690" math="0" shadow="0">
      <root>
        <mxCell id="0" />
        <mxCell id="1" parent="0" />
        <mxCell id="360h_zBLhdtkJ6FQsFcI-25" value="" style="rounded=1;whiteSpace=wrap;html=1;fillColor=none;dashed=1;container=0;" vertex="1" parent="1">
          <mxGeometry x="180" y="561" width="380" height="96" as="geometry" />
        </mxCell>
        <mxCell id="360h_zBLhdtkJ6FQsFcI-17" style="edgeStyle=orthogonalEdgeStyle;rounded=0;orthogonalLoop=1;jettySize=auto;html=1;entryX=0;entryY=0.5;entryDx=0;entryDy=0;" edge="1" parent="1" source="360h_zBLhdtkJ6FQsFcI-7" target="360h_zBLhdtkJ6FQsFcI-15">
          <mxGeometry relative="1" as="geometry" />
        </mxCell>
        <mxCell id="360h_zBLhdtkJ6FQsFcI-7" value="&lt;font style=&quot;font-size: 14px;&quot;&gt;时间戳区&lt;/font&gt;" style="rounded=0;whiteSpace=wrap;html=1;fontSize=15;fillColor=#e3c800;fontColor=#000000;strokeColor=none;strokeWidth=2;rotation=90;horizontal=0;" vertex="1" parent="1">
          <mxGeometry x="-20" y="49" width="133" height="60" as="geometry" />
        </mxCell>
        <mxCell id="360h_zBLhdtkJ6FQsFcI-15" value="" style="rounded=1;whiteSpace=wrap;html=1;fillColor=none;dashed=1;container=0;" vertex="1" parent="1">
          <mxGeometry x="195" y="31" width="244" height="96" as="geometry" />
        </mxCell>
        <mxCell id="360h_zBLhdtkJ6FQsFcI-9" value="时间戳 1" style="rounded=1;whiteSpace=wrap;html=1;container=0;fillColor=#fff2cc;strokeColor=#d6b656;" vertex="1" parent="1">
          <mxGeometry x="208" y="45" width="57" height="60" as="geometry" />
        </mxCell>
        <mxCell id="360h_zBLhdtkJ6FQsFcI-10" value="时间戳 2" style="rounded=1;whiteSpace=wrap;html=1;container=0;fillColor=#fff2cc;strokeColor=#d6b656;" vertex="1" parent="1">
          <mxGeometry x="265" y="45" width="57" height="60" as="geometry" />
        </mxCell>
        <mxCell id="360h_zBLhdtkJ6FQsFcI-11" value="时间戳 3" style="rounded=1;whiteSpace=wrap;html=1;container=0;fillColor=#fff2cc;strokeColor=#d6b656;" vertex="1" parent="1">
          <mxGeometry x="322" y="45" width="57" height="60" as="geometry" />
        </mxCell>
        <mxCell id="360h_zBLhdtkJ6FQsFcI-14" value="&lt;font style=&quot;font-size: 15px;&quot;&gt;...&lt;/font&gt;" style="text;html=1;align=center;verticalAlign=middle;resizable=0;points=[];autosize=1;strokeColor=none;fillColor=none;container=0;" vertex="1" parent="1">
          <mxGeometry x="391" y="58" width="31" height="30" as="geometry" />
        </mxCell>
        <mxCell id="360h_zBLhdtkJ6FQsFcI-26" value="8 字节" style="text;html=1;align=center;verticalAlign=middle;resizable=0;points=[];autosize=1;strokeColor=none;fillColor=none;" vertex="1" parent="1">
          <mxGeometry x="210.5" y="102" width="52" height="26" as="geometry" />
        </mxCell>
        <mxCell id="360h_zBLhdtkJ6FQsFcI-85" value="" style="group" vertex="1" connectable="0" parent="1">
          <mxGeometry x="16.5" y="145.5" width="538.5" height="390" as="geometry" />
        </mxCell>
        <mxCell id="360h_zBLhdtkJ6FQsFcI-82" value="" style="rounded=1;whiteSpace=wrap;html=1;fillColor=none;dashed=1;container=0;" vertex="1" parent="360h_zBLhdtkJ6FQsFcI-85">
          <mxGeometry x="158.5" y="11" width="380" height="379" as="geometry" />
        </mxCell>
        <mxCell id="360h_zBLhdtkJ6FQsFcI-83" style="edgeStyle=orthogonalEdgeStyle;rounded=0;orthogonalLoop=1;jettySize=auto;html=1;entryX=0;entryY=0.5;entryDx=0;entryDy=0;" edge="1" parent="360h_zBLhdtkJ6FQsFcI-85" source="360h_zBLhdtkJ6FQsFcI-6" target="360h_zBLhdtkJ6FQsFcI-82">
          <mxGeometry relative="1" as="geometry" />
        </mxCell>
        <mxCell id="360h_zBLhdtkJ6FQsFcI-6" value="数据区" style="rounded=0;whiteSpace=wrap;html=1;fontSize=15;fillColor=#a20025;fontColor=#ffffff;strokeColor=none;strokeWidth=2;rotation=90;horizontal=0;" vertex="1" parent="360h_zBLhdtkJ6FQsFcI-85">
          <mxGeometry x="-29" y="29" width="118" height="60" as="geometry" />
        </mxCell>
        <mxCell id="360h_zBLhdtkJ6FQsFcI-46" value="True" style="rounded=1;whiteSpace=wrap;html=1;fillColor=#ffcccc;strokeColor=#36393d;" vertex="1" parent="360h_zBLhdtkJ6FQsFcI-85">
          <mxGeometry x="270.5" y="37" width="70" height="38" as="geometry" />
        </mxCell>
        <mxCell id="360h_zBLhdtkJ6FQsFcI-47" value="True" style="rounded=1;whiteSpace=wrap;html=1;fillColor=#ffcccc;strokeColor=#36393d;" vertex="1" parent="360h_zBLhdtkJ6FQsFcI-85">
          <mxGeometry x="340.5" y="37" width="70" height="38" as="geometry" />
        </mxCell>
        <mxCell id="360h_zBLhdtkJ6FQsFcI-48" value="False" style="rounded=1;whiteSpace=wrap;html=1;fillColor=#ffcccc;strokeColor=#36393d;" vertex="1" parent="360h_zBLhdtkJ6FQsFcI-85">
          <mxGeometry x="410.5" y="37" width="70" height="38" as="geometry" />
        </mxCell>
        <mxCell id="360h_zBLhdtkJ6FQsFcI-49" value="&lt;font style=&quot;font-size: 15px;&quot;&gt;...&lt;/font&gt;" style="text;html=1;align=center;verticalAlign=middle;resizable=0;points=[];autosize=1;strokeColor=none;fillColor=none;container=0;" vertex="1" parent="360h_zBLhdtkJ6FQsFcI-85">
          <mxGeometry x="496.5" y="37" width="31" height="30" as="geometry" />
        </mxCell>
        <mxCell id="360h_zBLhdtkJ6FQsFcI-50" value="1" style="rounded=1;whiteSpace=wrap;html=1;fillColor=#cdeb8b;strokeColor=#36393d;" vertex="1" parent="360h_zBLhdtkJ6FQsFcI-85">
          <mxGeometry x="270.5" y="94" width="70" height="38" as="geometry" />
        </mxCell>
        <mxCell id="360h_zBLhdtkJ6FQsFcI-51" value="2" style="rounded=1;whiteSpace=wrap;html=1;fillColor=#cdeb8b;strokeColor=#36393d;" vertex="1" parent="360h_zBLhdtkJ6FQsFcI-85">
          <mxGeometry x="340.5" y="94" width="70" height="38" as="geometry" />
        </mxCell>
        <mxCell id="360h_zBLhdtkJ6FQsFcI-52" value="5" style="rounded=1;whiteSpace=wrap;html=1;fillColor=#cdeb8b;strokeColor=#36393d;" vertex="1" parent="360h_zBLhdtkJ6FQsFcI-85">
          <mxGeometry x="410.5" y="94" width="70" height="38" as="geometry" />
        </mxCell>
        <mxCell id="360h_zBLhdtkJ6FQsFcI-53" value="&lt;font style=&quot;font-size: 15px;&quot;&gt;...&lt;/font&gt;" style="text;html=1;align=center;verticalAlign=middle;resizable=0;points=[];autosize=1;strokeColor=none;fillColor=none;container=0;" vertex="1" parent="360h_zBLhdtkJ6FQsFcI-85">
          <mxGeometry x="496.5" y="94" width="31" height="30" as="geometry" />
        </mxCell>
        <mxCell id="360h_zBLhdtkJ6FQsFcI-54" value="3" style="rounded=1;whiteSpace=wrap;html=1;fillColor=#ffff88;strokeColor=#36393d;" vertex="1" parent="360h_zBLhdtkJ6FQsFcI-85">
          <mxGeometry x="270.5" y="150" width="70" height="38" as="geometry" />
        </mxCell>
        <mxCell id="360h_zBLhdtkJ6FQsFcI-55" value="1024" style="rounded=1;whiteSpace=wrap;html=1;fillColor=#ffff88;strokeColor=#36393d;" vertex="1" parent="360h_zBLhdtkJ6FQsFcI-85">
          <mxGeometry x="340.5" y="150" width="70" height="38" as="geometry" />
        </mxCell>
        <mxCell id="360h_zBLhdtkJ6FQsFcI-56" value="3251" style="rounded=1;whiteSpace=wrap;html=1;fillColor=#ffff88;strokeColor=#36393d;" vertex="1" parent="360h_zBLhdtkJ6FQsFcI-85">
          <mxGeometry x="410.5" y="150" width="70" height="38" as="geometry" />
        </mxCell>
        <mxCell id="360h_zBLhdtkJ6FQsFcI-57" value="&lt;font style=&quot;font-size: 15px;&quot;&gt;...&lt;/font&gt;" style="text;html=1;align=center;verticalAlign=middle;resizable=0;points=[];autosize=1;strokeColor=none;fillColor=none;container=0;" vertex="1" parent="360h_zBLhdtkJ6FQsFcI-85">
          <mxGeometry x="496.5" y="150" width="31" height="30" as="geometry" />
        </mxCell>
        <mxCell id="360h_zBLhdtkJ6FQsFcI-58" value="1.2" style="rounded=1;whiteSpace=wrap;html=1;fillColor=#cce5ff;strokeColor=#36393d;" vertex="1" parent="360h_zBLhdtkJ6FQsFcI-85">
          <mxGeometry x="270.5" y="209" width="70" height="38" as="geometry" />
        </mxCell>
        <mxCell id="360h_zBLhdtkJ6FQsFcI-59" value="3.5" style="rounded=1;whiteSpace=wrap;html=1;fillColor=#cce5ff;strokeColor=#36393d;" vertex="1" parent="360h_zBLhdtkJ6FQsFcI-85">
          <mxGeometry x="340.5" y="209" width="70" height="38" as="geometry" />
        </mxCell>
        <mxCell id="360h_zBLhdtkJ6FQsFcI-60" value="1.2" style="rounded=1;whiteSpace=wrap;html=1;fillColor=#cce5ff;strokeColor=#36393d;" vertex="1" parent="360h_zBLhdtkJ6FQsFcI-85">
          <mxGeometry x="410.5" y="209" width="70" height="38" as="geometry" />
        </mxCell>
        <mxCell id="360h_zBLhdtkJ6FQsFcI-61" value="&lt;font style=&quot;font-size: 15px;&quot;&gt;...&lt;/font&gt;" style="text;html=1;align=center;verticalAlign=middle;resizable=0;points=[];autosize=1;strokeColor=none;fillColor=none;container=0;" vertex="1" parent="360h_zBLhdtkJ6FQsFcI-85">
          <mxGeometry x="496.5" y="209" width="31" height="30" as="geometry" />
        </mxCell>
        <mxCell id="360h_zBLhdtkJ6FQsFcI-62" value="1.234" style="rounded=1;whiteSpace=wrap;html=1;fillColor=#ffcc99;strokeColor=#36393d;" vertex="1" parent="360h_zBLhdtkJ6FQsFcI-85">
          <mxGeometry x="270.5" y="267" width="70" height="38" as="geometry" />
        </mxCell>
        <mxCell id="360h_zBLhdtkJ6FQsFcI-63" value="4.3" style="rounded=1;whiteSpace=wrap;html=1;fillColor=#ffcc99;strokeColor=#36393d;" vertex="1" parent="360h_zBLhdtkJ6FQsFcI-85">
          <mxGeometry x="340.5" y="267" width="70" height="38" as="geometry" />
        </mxCell>
        <mxCell id="360h_zBLhdtkJ6FQsFcI-64" value="1.6" style="rounded=1;whiteSpace=wrap;html=1;fillColor=#ffcc99;strokeColor=#36393d;" vertex="1" parent="360h_zBLhdtkJ6FQsFcI-85">
          <mxGeometry x="410.5" y="267" width="70" height="38" as="geometry" />
        </mxCell>
        <mxCell id="360h_zBLhdtkJ6FQsFcI-65" value="&lt;font style=&quot;font-size: 15px;&quot;&gt;...&lt;/font&gt;" style="text;html=1;align=center;verticalAlign=middle;resizable=0;points=[];autosize=1;strokeColor=none;fillColor=none;container=0;" vertex="1" parent="360h_zBLhdtkJ6FQsFcI-85">
          <mxGeometry x="496.5" y="267" width="31" height="30" as="geometry" />
        </mxCell>
        <mxCell id="360h_zBLhdtkJ6FQsFcI-66" value="ab" style="rounded=1;whiteSpace=wrap;html=1;fillColor=#f9f7ed;strokeColor=#36393d;" vertex="1" parent="360h_zBLhdtkJ6FQsFcI-85">
          <mxGeometry x="270.5" y="324" width="70" height="38" as="geometry" />
        </mxCell>
        <mxCell id="360h_zBLhdtkJ6FQsFcI-67" value="ef" style="rounded=1;whiteSpace=wrap;html=1;fillColor=#f9f7ed;strokeColor=#36393d;" vertex="1" parent="360h_zBLhdtkJ6FQsFcI-85">
          <mxGeometry x="340.5" y="324" width="70" height="38" as="geometry" />
        </mxCell>
        <mxCell id="360h_zBLhdtkJ6FQsFcI-68" value="de" style="rounded=1;whiteSpace=wrap;html=1;fillColor=#f9f7ed;strokeColor=#36393d;" vertex="1" parent="360h_zBLhdtkJ6FQsFcI-85">
          <mxGeometry x="410.5" y="324" width="70" height="38" as="geometry" />
        </mxCell>
        <mxCell id="360h_zBLhdtkJ6FQsFcI-69" value="&lt;font style=&quot;font-size: 15px;&quot;&gt;...&lt;/font&gt;" style="text;html=1;align=center;verticalAlign=middle;resizable=0;points=[];autosize=1;strokeColor=none;fillColor=none;container=0;" vertex="1" parent="360h_zBLhdtkJ6FQsFcI-85">
          <mxGeometry x="496.5" y="324" width="31" height="30" as="geometry" />
        </mxCell>
        <mxCell id="360h_zBLhdtkJ6FQsFcI-70" value="BOOL 类型" style="text;html=1;align=center;verticalAlign=middle;resizable=0;points=[];autosize=1;strokeColor=none;fillColor=none;" vertex="1" parent="360h_zBLhdtkJ6FQsFcI-85">
          <mxGeometry x="171.5" y="43" width="78" height="26" as="geometry" />
        </mxCell>
        <mxCell id="360h_zBLhdtkJ6FQsFcI-71" value="INT32 类型" style="text;html=1;align=center;verticalAlign=middle;resizable=0;points=[];autosize=1;strokeColor=none;fillColor=none;" vertex="1" parent="360h_zBLhdtkJ6FQsFcI-85">
          <mxGeometry x="170.5" y="100" width="78" height="26" as="geometry" />
        </mxCell>
        <mxCell id="360h_zBLhdtkJ6FQsFcI-72" value="INT64 类型" style="text;html=1;align=center;verticalAlign=middle;resizable=0;points=[];autosize=1;strokeColor=none;fillColor=none;" vertex="1" parent="360h_zBLhdtkJ6FQsFcI-85">
          <mxGeometry x="171.5" y="158" width="78" height="26" as="geometry" />
        </mxCell>
        <mxCell id="360h_zBLhdtkJ6FQsFcI-73" value="FLOAT&amp;nbsp;类型" style="text;html=1;align=center;verticalAlign=middle;resizable=0;points=[];autosize=1;strokeColor=none;fillColor=none;" vertex="1" parent="360h_zBLhdtkJ6FQsFcI-85">
          <mxGeometry x="167.5" y="215" width="83" height="26" as="geometry" />
        </mxCell>
        <mxCell id="360h_zBLhdtkJ6FQsFcI-74" value="DOUBLE 类型" style="text;html=1;align=center;verticalAlign=middle;resizable=0;points=[];autosize=1;strokeColor=none;fillColor=none;" vertex="1" parent="360h_zBLhdtkJ6FQsFcI-85">
          <mxGeometry x="162.5" y="273" width="95" height="26" as="geometry" />
        </mxCell>
        <mxCell id="360h_zBLhdtkJ6FQsFcI-75" value="TEXT 类型" style="text;html=1;align=center;verticalAlign=middle;resizable=0;points=[];autosize=1;strokeColor=none;fillColor=none;" vertex="1" parent="360h_zBLhdtkJ6FQsFcI-85">
          <mxGeometry x="172.5" y="330" width="76" height="26" as="geometry" />
        </mxCell>
        <mxCell id="360h_zBLhdtkJ6FQsFcI-76" value="1 bit" style="text;html=1;align=center;verticalAlign=middle;resizable=0;points=[];autosize=1;strokeColor=none;fillColor=none;" vertex="1" parent="360h_zBLhdtkJ6FQsFcI-85">
          <mxGeometry x="285" y="71" width="41" height="26" as="geometry" />
        </mxCell>
        <mxCell id="360h_zBLhdtkJ6FQsFcI-77" value="4 byte" style="text;html=1;align=center;verticalAlign=middle;resizable=0;points=[];autosize=1;strokeColor=none;fillColor=none;" vertex="1" parent="360h_zBLhdtkJ6FQsFcI-85">
          <mxGeometry x="277.5" y="126" width="51" height="26" as="geometry" />
        </mxCell>
        <mxCell id="360h_zBLhdtkJ6FQsFcI-78" value="4 byte" style="text;html=1;align=center;verticalAlign=middle;resizable=0;points=[];autosize=1;strokeColor=none;fillColor=none;" vertex="1" parent="360h_zBLhdtkJ6FQsFcI-85">
          <mxGeometry x="280" y="243" width="51" height="26" as="geometry" />
        </mxCell>
        <mxCell id="360h_zBLhdtkJ6FQsFcI-79" value="8 byte" style="text;html=1;align=center;verticalAlign=middle;resizable=0;points=[];autosize=1;strokeColor=none;fillColor=none;" vertex="1" parent="360h_zBLhdtkJ6FQsFcI-85">
          <mxGeometry x="277.5" y="184.5" width="51" height="26" as="geometry" />
        </mxCell>
        <mxCell id="360h_zBLhdtkJ6FQsFcI-80" value="8 byte" style="text;html=1;align=center;verticalAlign=middle;resizable=0;points=[];autosize=1;strokeColor=none;fillColor=none;" vertex="1" parent="360h_zBLhdtkJ6FQsFcI-85">
          <mxGeometry x="280" y="302" width="51" height="26" as="geometry" />
        </mxCell>
        <mxCell id="360h_zBLhdtkJ6FQsFcI-81" value="不定长" style="text;html=1;align=center;verticalAlign=middle;resizable=0;points=[];autosize=1;strokeColor=none;fillColor=none;" vertex="1" parent="360h_zBLhdtkJ6FQsFcI-85">
          <mxGeometry x="279" y="359" width="54" height="26" as="geometry" />
        </mxCell>
        <mxCell id="360h_zBLhdtkJ6FQsFcI-4" value="数据类型区" style="rounded=0;whiteSpace=wrap;html=1;fontSize=15;fillColor=#008a00;fontColor=#ffffff;strokeColor=none;strokeWidth=2;rotation=90;horizontal=0;" vertex="1" parent="360h_zBLhdtkJ6FQsFcI-85">
          <mxGeometry x="-29.5" y="144" width="119" height="60" as="geometry" />
        </mxCell>
        <mxCell id="360h_zBLhdtkJ6FQsFcI-28" style="edgeStyle=orthogonalEdgeStyle;rounded=0;orthogonalLoop=1;jettySize=auto;html=1;entryX=0;entryY=0.5;entryDx=0;entryDy=0;exitX=1;exitY=0.5;exitDx=0;exitDy=0;" edge="1" parent="1" source="360h_zBLhdtkJ6FQsFcI-4" target="360h_zBLhdtkJ6FQsFcI-25">
          <mxGeometry relative="1" as="geometry">
            <Array as="points">
              <mxPoint x="47" y="410" />
              <mxPoint x="128" y="410" />
              <mxPoint x="128" y="609" />
            </Array>
          </mxGeometry>
        </mxCell>
        <mxCell id="360h_zBLhdtkJ6FQsFcI-19" value="数据类型 1" style="rounded=1;whiteSpace=wrap;html=1;fillColor=#d5e8d4;strokeColor=#82b366;container=0;" vertex="1" parent="1">
          <mxGeometry x="257" y="577" width="50" height="60" as="geometry" />
        </mxCell>
        <mxCell id="360h_zBLhdtkJ6FQsFcI-22" value="数据类型 2" style="rounded=1;whiteSpace=wrap;html=1;fillColor=#d5e8d4;strokeColor=#82b366;container=0;" vertex="1" parent="1">
          <mxGeometry x="307" y="577" width="50" height="60" as="geometry" />
        </mxCell>
        <mxCell id="360h_zBLhdtkJ6FQsFcI-23" value="数据类型 3" style="rounded=1;whiteSpace=wrap;html=1;fillColor=#d5e8d4;strokeColor=#82b366;container=0;" vertex="1" parent="1">
          <mxGeometry x="419" y="577" width="50" height="60" as="geometry" />
        </mxCell>
        <mxCell id="360h_zBLhdtkJ6FQsFcI-24" value="&lt;font style=&quot;font-size: 15px;&quot;&gt;...&lt;/font&gt;" style="text;html=1;align=center;verticalAlign=middle;resizable=0;points=[];autosize=1;strokeColor=none;fillColor=none;container=0;" vertex="1" parent="1">
          <mxGeometry x="479" y="590" width="31" height="30" as="geometry" />
        </mxCell>
        <mxCell id="360h_zBLhdtkJ6FQsFcI-27" value="1 字节" style="text;html=1;align=center;verticalAlign=middle;resizable=0;points=[];autosize=1;strokeColor=none;fillColor=none;container=0;" vertex="1" parent="1">
          <mxGeometry x="257" y="634" width="52" height="26" as="geometry" />
        </mxCell>
        <mxCell id="360h_zBLhdtkJ6FQsFcI-86" value="第一行记录的长度" style="rounded=1;whiteSpace=wrap;html=1;fillColor=#d0cee2;strokeColor=#56517e;" vertex="1" parent="1">
          <mxGeometry x="195" y="577" width="62" height="60" as="geometry" />
        </mxCell>
        <mxCell id="360h_zBLhdtkJ6FQsFcI-87" value="4 字节" style="text;html=1;align=center;verticalAlign=middle;resizable=0;points=[];autosize=1;strokeColor=none;fillColor=none;container=0;" vertex="1" parent="1">
          <mxGeometry x="200" y="634" width="52" height="26" as="geometry" />
        </mxCell>
        <mxCell id="360h_zBLhdtkJ6FQsFcI-89" value="第二行记录的长度" style="rounded=1;whiteSpace=wrap;html=1;fillColor=#d0cee2;strokeColor=#56517e;" vertex="1" parent="1">
          <mxGeometry x="357" y="577" width="62" height="60" as="geometry" />
        </mxCell>
      </root>
    </mxGraphModel>
  </diagram>
</mxfile>
